<mxfile host="app.diagrams.net" modified="2023-11-23T16:42:37.181Z" agent="Mozilla/5.0 (Macintosh; Intel Mac OS X 10_15_7) AppleWebKit/537.36 (KHTML, like Gecko) Chrome/119.0.0.0 Safari/537.36" etag="Yr___lNvWrhd0waqUIj-" version="22.1.3" type="device">
  <diagram name="Page-1" id="2YBvvXClWsGukQMizWep">
    <mxGraphModel dx="1193" dy="694" grid="1" gridSize="10" guides="1" tooltips="1" connect="1" arrows="1" fold="1" page="1" pageScale="1" pageWidth="1100" pageHeight="850" math="0" shadow="0">
      <root>
        <mxCell id="0" />
        <mxCell id="1" parent="0" />
        <mxCell id="QEVS_JRQTgQEGRy0kF9V-2" style="edgeStyle=orthogonalEdgeStyle;rounded=0;orthogonalLoop=1;jettySize=auto;html=1;exitX=0.5;exitY=1;exitDx=0;exitDy=0;" edge="1" parent="1" source="QEVS_JRQTgQEGRy0kF9V-1">
          <mxGeometry relative="1" as="geometry">
            <mxPoint x="325" y="260" as="targetPoint" />
            <mxPoint x="320" y="190" as="sourcePoint" />
            <Array as="points">
              <mxPoint x="325" y="200" />
              <mxPoint x="325" y="200" />
            </Array>
          </mxGeometry>
        </mxCell>
        <mxCell id="QEVS_JRQTgQEGRy0kF9V-1" value="" style="ellipse;whiteSpace=wrap;html=1;fillColor=#000000;" vertex="1" parent="1">
          <mxGeometry x="320" y="170" width="10" height="10" as="geometry" />
        </mxCell>
        <mxCell id="QEVS_JRQTgQEGRy0kF9V-11" style="edgeStyle=orthogonalEdgeStyle;rounded=0;orthogonalLoop=1;jettySize=auto;html=1;entryX=0;entryY=0.5;entryDx=0;entryDy=0;" edge="1" parent="1" source="QEVS_JRQTgQEGRy0kF9V-5" target="QEVS_JRQTgQEGRy0kF9V-8">
          <mxGeometry relative="1" as="geometry" />
        </mxCell>
        <mxCell id="QEVS_JRQTgQEGRy0kF9V-13" style="edgeStyle=orthogonalEdgeStyle;rounded=0;orthogonalLoop=1;jettySize=auto;html=1;entryX=0.5;entryY=0;entryDx=0;entryDy=0;" edge="1" parent="1" source="QEVS_JRQTgQEGRy0kF9V-5" target="QEVS_JRQTgQEGRy0kF9V-7">
          <mxGeometry relative="1" as="geometry" />
        </mxCell>
        <mxCell id="QEVS_JRQTgQEGRy0kF9V-5" value="&lt;font face=&quot;Courier New&quot;&gt;Request Sent&lt;/font&gt;" style="rounded=1;whiteSpace=wrap;html=1;" vertex="1" parent="1">
          <mxGeometry x="265" y="260" width="120" height="60" as="geometry" />
        </mxCell>
        <mxCell id="QEVS_JRQTgQEGRy0kF9V-6" value="&lt;font face=&quot;Courier New&quot;&gt;Admin picks flight&lt;/font&gt;" style="text;html=1;align=center;verticalAlign=middle;resizable=0;points=[];autosize=1;strokeColor=none;fillColor=none;" vertex="1" parent="1">
          <mxGeometry x="170" y="210" width="150" height="30" as="geometry" />
        </mxCell>
        <mxCell id="QEVS_JRQTgQEGRy0kF9V-16" style="edgeStyle=orthogonalEdgeStyle;rounded=0;orthogonalLoop=1;jettySize=auto;html=1;entryX=0;entryY=0.5;entryDx=0;entryDy=0;" edge="1" parent="1" source="QEVS_JRQTgQEGRy0kF9V-7" target="QEVS_JRQTgQEGRy0kF9V-15">
          <mxGeometry relative="1" as="geometry" />
        </mxCell>
        <mxCell id="QEVS_JRQTgQEGRy0kF9V-7" value="&lt;font face=&quot;Courier New&quot;&gt;Valid&lt;/font&gt;" style="rounded=1;whiteSpace=wrap;html=1;" vertex="1" parent="1">
          <mxGeometry x="265" y="530" width="120" height="60" as="geometry" />
        </mxCell>
        <mxCell id="QEVS_JRQTgQEGRy0kF9V-22" style="edgeStyle=orthogonalEdgeStyle;rounded=0;orthogonalLoop=1;jettySize=auto;html=1;entryX=0.5;entryY=0;entryDx=0;entryDy=0;" edge="1" parent="1" source="QEVS_JRQTgQEGRy0kF9V-8" target="QEVS_JRQTgQEGRy0kF9V-10">
          <mxGeometry relative="1" as="geometry" />
        </mxCell>
        <mxCell id="QEVS_JRQTgQEGRy0kF9V-8" value="&lt;font style=&quot;font-size: 12px;&quot; face=&quot;Courier New&quot;&gt;Invalid&lt;/font&gt;" style="rounded=1;whiteSpace=wrap;html=1;" vertex="1" parent="1">
          <mxGeometry x="650" y="260" width="120" height="60" as="geometry" />
        </mxCell>
        <mxCell id="QEVS_JRQTgQEGRy0kF9V-9" value="" style="ellipse;whiteSpace=wrap;html=1;fillColor=#000000;" vertex="1" parent="1">
          <mxGeometry x="705" y="375" width="10" height="10" as="geometry" />
        </mxCell>
        <mxCell id="QEVS_JRQTgQEGRy0kF9V-10" value="" style="ellipse;whiteSpace=wrap;html=1;fillColor=none;" vertex="1" parent="1">
          <mxGeometry x="697.5" y="370" width="25" height="20" as="geometry" />
        </mxCell>
        <mxCell id="QEVS_JRQTgQEGRy0kF9V-12" value="&lt;font style=&quot;font-size: 8px;&quot; face=&quot;Courier New&quot;&gt;The selected flight is not valid &lt;br&gt;(ie. does not exist, incorrect flight selected, etc.)&amp;nbsp;&lt;/font&gt;" style="text;html=1;align=center;verticalAlign=middle;resizable=0;points=[];autosize=1;strokeColor=none;fillColor=none;" vertex="1" parent="1">
          <mxGeometry x="380" y="250" width="280" height="40" as="geometry" />
        </mxCell>
        <mxCell id="QEVS_JRQTgQEGRy0kF9V-14" value="&lt;font style=&quot;font-size: 10px;&quot; face=&quot;Courier New&quot;&gt;The selected flight is valid &lt;br&gt;and avaliable in the records&lt;/font&gt;" style="text;html=1;align=center;verticalAlign=middle;resizable=0;points=[];autosize=1;strokeColor=none;fillColor=none;" vertex="1" parent="1">
          <mxGeometry x="130" y="390" width="190" height="40" as="geometry" />
        </mxCell>
        <mxCell id="QEVS_JRQTgQEGRy0kF9V-19" style="edgeStyle=orthogonalEdgeStyle;rounded=0;orthogonalLoop=1;jettySize=auto;html=1;entryX=0.5;entryY=1;entryDx=0;entryDy=0;" edge="1" parent="1" source="QEVS_JRQTgQEGRy0kF9V-15" target="QEVS_JRQTgQEGRy0kF9V-18">
          <mxGeometry relative="1" as="geometry" />
        </mxCell>
        <mxCell id="QEVS_JRQTgQEGRy0kF9V-15" value="&lt;font face=&quot;Courier New&quot;&gt;Flight Info Retrieved&lt;/font&gt;" style="rounded=1;whiteSpace=wrap;html=1;" vertex="1" parent="1">
          <mxGeometry x="650" y="530" width="120" height="60" as="geometry" />
        </mxCell>
        <mxCell id="QEVS_JRQTgQEGRy0kF9V-17" value="&lt;font style=&quot;font-size: 10px;&quot; face=&quot;Courier New&quot;&gt;Flight_id is sent to backend, &lt;br&gt;flight info is retrieved.&lt;/font&gt;" style="text;html=1;align=center;verticalAlign=middle;resizable=0;points=[];autosize=1;strokeColor=none;fillColor=none;" vertex="1" parent="1">
          <mxGeometry x="420" y="520" width="200" height="40" as="geometry" />
        </mxCell>
        <mxCell id="QEVS_JRQTgQEGRy0kF9V-21" style="edgeStyle=orthogonalEdgeStyle;rounded=0;orthogonalLoop=1;jettySize=auto;html=1;entryX=0.5;entryY=1;entryDx=0;entryDy=0;" edge="1" parent="1" source="QEVS_JRQTgQEGRy0kF9V-18" target="QEVS_JRQTgQEGRy0kF9V-10">
          <mxGeometry relative="1" as="geometry" />
        </mxCell>
        <mxCell id="QEVS_JRQTgQEGRy0kF9V-18" value="&lt;font face=&quot;Courier New&quot;&gt;Passenger List&lt;/font&gt;" style="rounded=1;whiteSpace=wrap;html=1;" vertex="1" parent="1">
          <mxGeometry x="650" y="430" width="120" height="60" as="geometry" />
        </mxCell>
        <mxCell id="QEVS_JRQTgQEGRy0kF9V-20" value="&lt;font style=&quot;font-size: 10px;&quot; face=&quot;Courier New&quot;&gt;Passenger list details &lt;br&gt;pulled from flight info&lt;/font&gt;" style="text;html=1;align=center;verticalAlign=middle;resizable=0;points=[];autosize=1;strokeColor=none;fillColor=none;" vertex="1" parent="1">
          <mxGeometry x="750" y="490" width="160" height="40" as="geometry" />
        </mxCell>
      </root>
    </mxGraphModel>
  </diagram>
</mxfile>
